<?xml version="1.0" encoding="UTF-8"?>
<svg version="1.1" xmlns="http://www.w3.org/2000/svg" width="1536" height="1024">
<path d="M0 0 C506.88 0 1013.76 0 1536 0 C1536 337.92 1536 675.84 1536 1024 C1029.12 1024 522.24 1024 0 1024 C0 686.08 0 348.16 0 0 Z " fill="#FEFEFE" transform="translate(0,0)"/>
<path d="M0 0 C4.30341371 2.18527959 8.11450274 5.14753315 12 8 C13.03640625 8.74765625 14.0728125 9.4953125 15.140625 10.265625 C26.71778206 18.87720488 38.01517669 28.66301775 47 40 C47.7528125 40.92683594 48.505625 41.85367188 49.28125 42.80859375 C71.8207152 70.98513241 85.62301097 103.89964663 93.3125 138.9375 C93.47194092 139.64511475 93.63138184 140.35272949 93.7956543 141.08178711 C101.71518804 179.24668855 95.36335532 222.59821282 80 258 C79.48445557 259.19520264 79.48445557 259.19520264 78.95849609 260.41455078 C73.21353725 273.52928034 66.31702349 285.36127535 58 297 C57.76425766 297.58602493 57.52851532 298.17204987 57.28562927 298.77583313 C56.10571977 301.18246834 55.18278449 302.41014745 53 304 C47.60011452 305.0203504 42.22877118 304.81366165 36.76171875 304.68359375 C35.15462909 304.67053063 33.54751146 304.66056982 31.94038391 304.65357971 C27.71953762 304.62690917 23.50038967 304.55819892 19.2802124 304.48065186 C14.97024511 304.40891884 10.66000212 304.37704695 6.34960938 304.34179688 C-2.10103803 304.2668239 -10.55030749 304.14742584 -19 304 C-15.69876419 300.66013307 -12.37015321 297.60271173 -8.6875 294.6875 C9.89086243 279.55692446 23.93450174 259.13048105 33 237 C33.35320312 236.15050781 33.70640625 235.30101562 34.0703125 234.42578125 C49.66199836 194.34164399 48.1899707 151.29590736 32.1875 111.5625 C23.76228768 93.21871762 10.19759924 70.33478132 -7 59 C-22.70977507 60.36835562 -40.69325564 78.84233029 -52 89 C-52.72574219 89.64066406 -53.45148438 90.28132813 -54.19921875 90.94140625 C-70.09893494 105.84114029 -82.05645718 126.30352708 -91 146 C-91.30534668 146.66628418 -91.61069336 147.33256836 -91.92529297 148.01904297 C-102.82392858 172.32422232 -105.45384275 198.71532672 -107 225 C-125.15 225 -143.3 225 -162 225 C-164.64 219.72 -167.28 214.44 -170 209 C-175.01890425 200.87415502 -180.41180999 193.88984707 -187 187 C-187.53882813 186.39800781 -188.07765625 185.79601562 -188.6328125 185.17578125 C-202.87271955 169.82673571 -225.48040934 158.80865409 -246.42749023 157.84179688 C-250.16203508 157.80407671 -253.89062783 157.82500326 -257.625 157.875 C-258.91535156 157.88402344 -260.20570313 157.89304687 -261.53515625 157.90234375 C-264.69030249 157.9257152 -267.84504926 157.95847909 -271 158 C-271.73187836 185.1775926 -271.73187836 185.1775926 -268 212 C-267.81727539 212.78874512 -267.63455078 213.57749023 -267.44628906 214.39013672 C-260.85747588 241.52977195 -246.58563453 264.52865928 -228 285 C-227.39929688 285.67289063 -226.79859375 286.34578125 -226.1796875 287.0390625 C-221.79718479 291.68583673 -216.68480748 295.48908579 -211.62158203 299.3581543 C-210.06506894 300.55153714 -208.53031418 301.77320167 -207 303 C-207 303.33 -207 303.66 -207 304 C-216.21420517 304.30233072 -225.42668398 304.53273505 -234.64478111 304.67355824 C-238.92627479 304.74118029 -243.20435705 304.83272915 -247.48388672 304.98071289 C-251.62096736 305.12286161 -255.75478771 305.19986434 -259.89412308 305.23340416 C-261.46613539 305.25727332 -263.03798521 305.30389579 -264.60859299 305.37449074 C-276.55000851 305.88946397 -276.55000851 305.88946397 -280.63807487 302.73669624 C-284.06821561 299.22092463 -286.54058655 295.2287855 -289 291 C-289.99452958 289.45342012 -290.99017742 287.90755685 -291.98828125 286.36328125 C-292.77327456 285.0189561 -293.54832282 283.66876614 -294.3125 282.3125 C-294.72854492 281.58901367 -295.14458984 280.86552734 -295.57324219 280.12011719 C-298.58565693 274.84070063 -301.41902343 269.50432759 -304 264 C-304.50273437 262.97519531 -305.00546875 261.95039062 -305.5234375 260.89453125 C-308.42681737 254.85408484 -310.7536003 249.03446566 -312.359375 242.52734375 C-312.94203787 240.22866766 -313.64402615 238.04520037 -314.4375 235.8125 C-320.89454248 216.84918578 -323.18774663 197.45342768 -323.125 177.5 C-323.12886719 176.23929688 -323.13273438 174.97859375 -323.13671875 173.6796875 C-323.13542969 172.47570312 -323.13414062 171.27171875 -323.1328125 170.03125 C-323.13112061 168.40026367 -323.13112061 168.40026367 -323.12939453 166.73632812 C-323 164 -323 164 -322 161 C-321.84477395 159.62071565 -321.729241 158.23672229 -321.640625 156.8515625 C-320.61168035 142.90604989 -318.43553421 129.30660263 -314 116 C-311.47133736 114.86164647 -309.0589935 113.93128727 -306.4375 113.0625 C-305.67969238 112.80380127 -304.92188477 112.54510254 -304.14111328 112.27856445 C-271.5147904 101.38847264 -236.25143284 102.03067273 -204 114 C-203.21383301 114.29003906 -202.42766602 114.58007812 -201.61767578 114.87890625 C-183.77395605 121.60167772 -168.58347623 131.14994609 -154.0625 143.4453125 C-151.30833874 145.94146713 -151.30833874 145.94146713 -149 147 C-148.91234375 146.20464844 -148.8246875 145.40929687 -148.734375 144.58984375 C-140.43198054 104.00526659 -104.54164713 63.05992121 -73 38 C-72.05640625 37.22785156 -71.1128125 36.45570313 -70.140625 35.66015625 C-53.07416926 22.02025574 -33.92019849 11.5406585 -13.875 3 C-13.17600586 2.69658691 -12.47701172 2.39317383 -11.75683594 2.08056641 C-7.68314463 0.40113138 -4.39489033 -0.61324051 0 0 Z " fill="#79B537" transform="translate(563,349)"/>
<path d="M0 0 C4.30341371 2.18527959 8.11450274 5.14753315 12 8 C13.55460938 9.12148438 13.55460938 9.12148438 15.140625 10.265625 C26.71778206 18.87720488 38.01517669 28.66301775 47 40 C47.7528125 40.92683594 48.505625 41.85367188 49.28125 42.80859375 C71.8207152 70.98513241 85.62301097 103.89964663 93.3125 138.9375 C93.47194092 139.64511475 93.63138184 140.35272949 93.7956543 141.08178711 C101.71518804 179.24668855 95.36335532 222.59821282 80 258 C79.48445557 259.19520264 79.48445557 259.19520264 78.95849609 260.41455078 C73.21353725 273.52928034 66.31702349 285.36127535 58 297 C57.76425766 297.58602493 57.52851532 298.17204987 57.28562927 298.77583313 C56.10571977 301.18246834 55.18278449 302.41014745 53 304 C47.60011452 305.0203504 42.22877118 304.81366165 36.76171875 304.68359375 C35.15462909 304.67053063 33.54751146 304.66056982 31.94038391 304.65357971 C27.71953762 304.62690917 23.50038967 304.55819892 19.2802124 304.48065186 C14.97024511 304.40891884 10.66000212 304.37704695 6.34960938 304.34179688 C-2.10103803 304.2668239 -10.55030749 304.14742584 -19 304 C-15.69876419 300.66013307 -12.37015321 297.60271173 -8.6875 294.6875 C9.89086243 279.55692446 23.93450174 259.13048105 33 237 C33.35320312 236.15050781 33.70640625 235.30101562 34.0703125 234.42578125 C49.66199836 194.34164399 48.1899707 151.29590736 32.1875 111.5625 C22.71914093 90.94752774 8.70543439 71.32281267 -9 57 C-9.94488281 56.22914063 -10.88976562 55.45828125 -11.86328125 54.6640625 C-25.81091248 43.49726741 -41.12392399 34.95626212 -58 29 C-56.38050009 24.14150028 -52.05031471 22.53235697 -47.8125 19.9375 C-46.88155518 19.36402832 -45.95061035 18.79055664 -44.99145508 18.19970703 C-35.07396294 12.23014762 -24.68773692 7.41656636 -14 3 C-13.27377441 2.69094727 -12.54754883 2.38189453 -11.79931641 2.06347656 C-7.71723663 0.40588719 -4.39602351 -0.61508148 0 0 Z " fill="#1C99E2" transform="translate(563,349)"/>
<path d="M0 0 C3.19481321 2.61393808 4.42058478 4.43821632 5.15625 8.484375 C6.16848709 35.64607034 -18.59660521 63.2245981 -34.25 83.25 C-34.96929688 84.17425781 -35.68859375 85.09851563 -36.4296875 86.05078125 C-38.34187205 88.47473303 -40.2883937 90.86589389 -42.25 93.25 C-43.0234375 94.2090625 -43.796875 95.168125 -44.59375 96.15625 C-49.42311634 102.0240645 -54.45983676 107.51903358 -59.9609375 112.76953125 C-60.99346416 113.76467176 -62.02593429 114.75987093 -63.05834961 115.75512695 C-65.09464556 117.71553609 -67.15777434 119.64063521 -69.24047852 121.55151367 C-76.38202668 128.29103509 -79.75741294 134.77078049 -82.25 144.25 C-82.46470947 145.0219873 -82.67941895 145.79397461 -82.90063477 146.58935547 C-85.54745805 156.89142492 -87.49805803 167.59357322 -82.25 177.25 C-80.6459472 178.8540528 -78.96890543 178.53596984 -76.75 178.625 C-65.5609408 178.41926058 -57.03626684 169.50467433 -49.25 162.25 C-48.51652344 161.32058594 -47.78304688 160.39117188 -47.02734375 159.43359375 C-45.25 157.25 -45.25 157.25 -42.625 156.8125 C-40.25 157.25 -40.25 157.25 -38.25 159.25 C-37.73494598 162.51566165 -37.98277836 163.86014042 -39.8671875 166.609375 C-42.3008381 169.18618152 -44.74737933 171.73989765 -47.25 174.25 C-48.01957031 175.04277344 -48.78914063 175.83554687 -49.58203125 176.65234375 C-59.79965333 186.56496219 -71.71101616 191.87275434 -86.015625 191.7109375 C-90.42339749 191.08277669 -92.64223102 189.61439879 -95.6640625 186.4140625 C-101.74416973 178.1175615 -101.98496171 169.18893602 -102.25 159.25 C-102.67708252 159.69802979 -103.10416504 160.14605957 -103.54418945 160.60766602 C-115.64750112 173.22428415 -127.97691164 186.0386997 -146.5625 186.75 C-151.54888732 186.55647915 -154.53179564 185.78229414 -158.25 182.25 C-162.69625907 177.18620495 -163.37478996 171.72194796 -164.25 165.25 C-164.84425781 165.81847656 -165.43851563 166.38695312 -166.05078125 166.97265625 C-176.40283145 176.61632355 -187.61417811 185.31336194 -202.1875 185.5 C-203.99541016 185.53867187 -203.99541016 185.53867187 -205.83984375 185.578125 C-210.18701352 185.15984062 -212.56798794 183.5582316 -215.9375 180.9375 C-219.72468046 176.06826798 -219.9209516 170.13648201 -219.25 164.25 C-217.40532488 154.53377228 -212.82952491 145.9921401 -208.3112793 137.29223633 C-201.90839035 125.87159261 -201.90839035 125.87159261 -200.25 113.25 C-212.10325692 114.48576508 -219.39757795 121.21086007 -227.87890625 129.0703125 C-229.97378198 130.99607965 -232.12136285 132.81134588 -234.3125 134.625 C-238.38458773 138.16559034 -241.63417484 142.23462842 -244.98046875 146.453125 C-247.06195254 149.01825821 -249.23468842 151.41052428 -251.5 153.8125 C-256.93123185 159.75917389 -261.48768524 166.32255758 -266.13671875 172.8828125 C-266.9093103 173.96344971 -266.9093103 173.96344971 -267.69750977 175.06591797 C-268.75611752 176.5551938 -269.80035516 178.05476382 -270.83178711 179.56298828 C-271.34362549 180.2898584 -271.85546387 181.01672852 -272.3828125 181.765625 C-272.83414551 182.42079102 -273.28547852 183.07595703 -273.75048828 183.75097656 C-275.66478316 185.66464809 -276.76153874 185.8058098 -279.4375 185.875 C-283.25 185.25 -283.25 185.25 -286.25 183.25 C-285.90226572 176.61906706 -285.28910346 171.196072 -282.25 165.25 C-283.136875 166.054375 -284.02375 166.85875 -284.9375 167.6875 C-296.1951193 177.26555513 -309.42788744 186.68364262 -324.75 186.4609375 C-329.73033673 186.04072159 -332.8267542 183.94352156 -336.0625 180.3125 C-340.53364295 174.05289987 -339.88963007 166.69499655 -339.25 159.25 C-335.81669459 144.08890836 -327.5830399 130.45330937 -320 117.0625 C-319.49267334 116.16515137 -318.98534668 115.26780273 -318.46264648 114.34326172 C-311.27500515 101.82928733 -311.27500515 101.82928733 -306.25 100.25 C-302.41691031 99.90775985 -300.12832303 99.70949352 -296.8125 101.75 C-296.296875 102.245 -295.78125 102.74 -295.25 103.25 C-295.74366687 108.32337645 -297.31762838 111.32380721 -300.1875 115.5 C-308.10682471 127.3532122 -315.36577869 139.8183914 -320.25 153.25 C-320.61480469 154.219375 -320.97960937 155.18875 -321.35546875 156.1875 C-322.29993716 159.4209639 -322.54982935 162.1380551 -322.5625 165.5 C-322.57925781 166.53640625 -322.59601562 167.5728125 -322.61328125 168.640625 C-322.49339844 169.50171875 -322.37351562 170.3628125 -322.25 171.25 C-319.34251775 173.1883215 -317.84369756 173.80368244 -314.39453125 173.6875 C-305.56470939 171.88615201 -297.85913633 165.00883809 -291.25 159.25 C-290.47172852 158.57227539 -290.47172852 158.57227539 -289.67773438 157.88085938 C-277.21831096 146.9440917 -269.42382133 136.32461186 -262.546875 121.17578125 C-257.43432179 110.03954786 -257.43432179 110.03954786 -253.25 107.25 C-251.05859375 106.984375 -251.05859375 106.984375 -248.6875 107 C-247.50994141 106.99226562 -247.50994141 106.99226562 -246.30859375 106.984375 C-244.25 107.25 -244.25 107.25 -242.25 109.25 C-242.37067151 116.85984695 -244.85243521 122.47259069 -248.25 129.1875 C-248.7140625 130.13173828 -249.178125 131.07597656 -249.65625 132.04882812 C-250.8416372 134.4557844 -252.04095375 136.85486776 -253.25 139.25 C-253.58 139.91 -253.91 140.57 -254.25 141.25 C-253.80720703 140.77691406 -253.36441406 140.30382812 -252.90820312 139.81640625 C-250.85685093 137.62630495 -248.80343617 135.43814741 -246.75 133.25 C-246.05390625 132.50621094 -245.3578125 131.76242187 -244.640625 130.99609375 C-216.63777434 101.17824351 -216.63777434 101.17824351 -198.375 100 C-194.3422057 100.0674631 -191.66326537 101.00034783 -188.25 103.25 C-184.25578535 107.56806989 -182.85601663 110.98139429 -182.984375 116.91796875 C-184.3759622 129.13528575 -192.46493006 141.68876617 -197.91015625 152.56640625 C-200.74836811 158.38349937 -202.42934595 163.70387286 -202.25 170.25 C-201.92 170.91 -201.59 171.57 -201.25 172.25 C-190.99160681 173.1048661 -185.13353695 169.26932956 -177.296875 163 C-175.54324408 161.50071249 -173.91388456 159.97040401 -172.3125 158.3125 C-171.631875 157.631875 -170.95125 156.95125 -170.25 156.25 C-169.59 156.25 -168.93 156.25 -168.25 156.25 C-167.92 155.26 -167.59 154.27 -167.25 153.25 C-166.06969605 152.10341902 -164.88862183 150.95761728 -163.703125 149.81640625 C-159.50421525 145.29016214 -156.50115216 139.69830721 -153.4375 134.375 C-144.40760228 119.24698953 -130.90843761 105.62050588 -113.75 100.3125 C-103.74160629 97.98731762 -95.40451472 98.67274264 -86.25 103.25 C-86.25 103.91 -86.25 104.57 -86.25 105.25 C-85.59 105.25 -84.93 105.25 -84.25 105.25 C-84.08636963 104.72720459 -83.92273926 104.20440918 -83.75415039 103.66577148 C-72.66949528 69.25252815 -48.98539947 20.28364968 -16.5 0.875 C-10.77992979 -1.98503511 -5.89329733 -3.17331394 0 0 Z " fill="#0769B8" transform="translate(1023.25,410.75)"/>
<path d="M0 0 C5.66484887 4.5590036 8.41755544 9.65891632 10.68359375 16.45703125 C12.42945964 32.89311159 5.906345 48.25952845 -3.75390625 61.26953125 C-8.96452827 67.62033315 -12.84993253 71.90005747 -21.30078125 72.7421875 C-23.31640625 72.45703125 -23.31640625 72.45703125 -25.0703125 71.125 C-26.31640625 69.45703125 -26.31640625 69.45703125 -26.50390625 66.70703125 C-25.0026434 62.59831188 -22.85447385 61.20708485 -19.515625 58.515625 C-15.55109926 54.80460357 -13.03067278 50.1159495 -10.31640625 45.45703125 C-9.5275 44.23306641 -9.5275 44.23306641 -8.72265625 42.984375 C-4.76406959 35.86991508 -2.8656747 26.27047 -4.85546875 18.296875 C-6.19344153 14.24619917 -7.39792917 11.5387222 -11.31640625 9.45703125 C-20.73658894 6.31697035 -30.66583221 8.28434017 -39.4609375 12.37890625 C-59.32630577 22.58291977 -74.17439237 40.19404329 -86.31640625 58.45703125 C-86.72697266 59.07094727 -87.13753906 59.68486328 -87.56054688 60.31738281 C-102.93733655 83.67071841 -115.64518994 112.19381427 -117.31640625 140.45703125 C-117.38085938 141.33230469 -117.4453125 142.20757813 -117.51171875 143.109375 C-117.94603269 153.89483787 -116.16773972 166.63670526 -108.81640625 174.98046875 C-101.24697365 182.43162896 -93.86277047 182.86654024 -83.72387695 182.82055664 C-62.53718969 182.36381575 -45.56474313 170.52901657 -29.94140625 157.33203125 C-29.35810547 156.84130127 -28.77480469 156.35057129 -28.17382812 155.8449707 C-22.38207349 150.85734809 -18.17755936 145.53658527 -14.56640625 138.76953125 C-6.35168178 123.95757037 5.22433567 111.6745277 20.68359375 104.45703125 C21.32425781 104.11800781 21.96492188 103.77898437 22.625 103.4296875 C29.56636207 100.17639253 39.13545173 99.90285846 46.32421875 102.359375 C48.15461952 103.31186133 49.9262866 104.37561146 51.68359375 105.45703125 C54.86849382 105.73438135 54.86849382 105.73438135 57.68359375 103.45703125 C61.12627637 103.64146068 63.73120244 103.86178668 66.68359375 105.70703125 C67.68359375 107.45703125 67.68359375 107.45703125 67.42578125 109.7421875 C66.60563991 112.74217818 65.42273045 114.9904408 63.80859375 117.64453125 C63.29554688 118.50433594 62.7825 119.36414063 62.25390625 120.25 C60.68359375 122.45703125 60.68359375 122.45703125 57.68359375 124.45703125 C52.54583359 124.9922146 52.54583359 124.9922146 49.87109375 123.33203125 C48.26131106 120.7902691 48.01250366 118.41722045 47.68359375 115.45703125 C40.56512095 112.60964213 34.14887189 112.67420935 27.0390625 115.29296875 C9.9545823 123.7360452 -0.44260265 142.1633434 -6.31640625 159.45703125 C-7.24890239 162.25451966 -7.45116777 164.00024006 -7.44140625 166.89453125 C-7.44398437 167.65636719 -7.4465625 168.41820312 -7.44921875 169.203125 C-7.3191664 171.41018984 -6.92496824 173.33672401 -6.31640625 175.45703125 C4.70113316 175.10162675 11.96151909 169.91029024 19.40625 162.046875 C27.85988607 152.43322026 34.47481881 142.20820364 40.69726562 131.03833008 C41.68359375 129.45703125 41.68359375 129.45703125 43.68359375 127.45703125 C45.99609375 127.19140625 45.99609375 127.19140625 48.68359375 127.20703125 C49.57046875 127.201875 50.45734375 127.19671875 51.37109375 127.19140625 C53.68359375 127.45703125 53.68359375 127.45703125 55.68359375 129.45703125 C56.44321373 134.98673796 54.44868909 138.46954703 51.87109375 143.14453125 C46.90993189 152.62591107 43.5747386 161.56039697 44.68359375 172.45703125 C45.01359375 173.11703125 45.34359375 173.77703125 45.68359375 174.45703125 C54.10658827 175.15894746 58.96666636 173.4831566 65.5 168.1640625 C81.02994216 154.67667534 91.96953615 137.79823192 101.7734375 119.91796875 C103.35266673 117.05662498 104.97970668 114.24521009 106.68359375 111.45703125 C106.02359375 111.45703125 105.36359375 111.45703125 104.68359375 111.45703125 C100.95187765 107.51045877 99.30906787 103.3481289 99.12109375 97.95703125 C99.45463642 91.27691272 101.40629805 86.57166297 106.30859375 82.01953125 C110.36207171 79.35276943 112.76609479 78.89272809 117.68359375 79.45703125 C120.83473011 80.8921418 122.82658101 82.52404348 124.68359375 85.45703125 C126.29756828 93.14522073 124.47748754 99.74996901 120.68359375 106.45703125 C122.41996094 106.62138672 122.41996094 106.62138672 124.19140625 106.7890625 C125.73053238 106.94860606 127.26959154 107.10879664 128.80859375 107.26953125 C129.94941406 107.37491211 129.94941406 107.37491211 131.11328125 107.48242188 C137.23793561 108.14240618 142.56929148 109.54815841 146.68359375 114.45703125 C148.42342288 119.89811015 147.8155448 124.44227626 145.33276367 129.48022461 C144.9741626 130.1531958 144.61556152 130.82616699 144.24609375 131.51953125 C143.70335815 132.60536499 143.70335815 132.60536499 143.1496582 133.71313477 C142.01558636 135.97270371 140.85280432 138.21547359 139.68359375 140.45703125 C130.51950137 157.04938484 130.51950137 157.04938484 129.68359375 175.45703125 C137.95536224 176.58499968 144.91174449 172.29416568 151.36328125 167.44140625 C159.50129321 160.39353296 167.28464772 152.86952828 169.83203125 142.1875 C174.53443296 127.10961562 186.72980907 113.0768477 200.0234375 105.04296875 C206.90503797 101.48042698 213.01733848 100.84506603 220.68359375 101.45703125 C225.47677648 103.11285801 227.88616089 105.26670995 230.68359375 109.45703125 C231.98435214 116.88481021 231.50296283 124.02472696 227.28515625 130.375 C226.49238281 131.40560547 226.49238281 131.40560547 225.68359375 132.45703125 C225.11382813 133.21628906 224.5440625 133.97554687 223.95703125 134.7578125 C214.41187047 146.44376037 200.24654808 152.54444038 185.68359375 155.45703125 C184.36359375 155.45703125 183.04359375 155.45703125 181.68359375 155.45703125 C181.91307186 157.68840388 182.16804931 159.91716281 182.43359375 162.14453125 C182.64242187 164.00658203 182.64242187 164.00658203 182.85546875 165.90625 C183.89863516 170.379072 185.77354652 173.02449583 189.43359375 175.76953125 C198.24876073 178.46305449 207.65704028 174.9533493 215.578125 171.01953125 C225.96634169 164.83713048 233.97620341 155.63750643 241.68359375 146.45703125 C246.55859375 147.33203125 246.55859375 147.33203125 247.68359375 148.45703125 C248.10542752 151.70233907 247.89042713 153.13318047 246.109375 155.921875 C245.41199219 156.73785156 244.71460938 157.55382812 243.99609375 158.39453125 C242.88621094 159.70550781 242.88621094 159.70550781 241.75390625 161.04296875 C241.07070312 161.83960938 240.3875 162.63625 239.68359375 163.45703125 C238.92046875 164.46765625 238.15734375 165.47828125 237.37109375 166.51953125 C226.22759241 178.69963736 211.68925081 188.15969317 194.92871094 189.03198242 C187.6686142 189.18529102 181.72870801 188.78734734 175.66796875 184.3671875 C170.55443514 179.4449081 167.77247779 174.18787983 165.68359375 167.45703125 C165.14992188 168.02550781 164.61625 168.59398437 164.06640625 169.1796875 C154.77115154 178.81265908 143.43281238 188.37319085 129.49609375 189.14453125 C123.44186807 188.86933917 119.75848073 186.8791517 115.68359375 182.45703125 C111.80034533 177.23891618 112.01389397 171.69705745 112.68359375 165.45703125 C114.51773837 154.94647203 119.153341 146.15048467 124.24609375 136.90234375 C125.83582352 134.01500332 127.41527421 131.12486154 128.93359375 128.19921875 C129.248125 127.59706543 129.56265625 126.99491211 129.88671875 126.37451172 C130.94185851 124.01162377 130.94185851 124.01162377 131.68359375 119.45703125 C126.40359375 118.46703125 121.12359375 117.47703125 115.68359375 116.45703125 C115.1009375 117.54757812 114.51828125 118.638125 113.91796875 119.76171875 C105.52603122 135.27629806 96.31734401 150.14615276 84.68359375 163.45703125 C83.9565625 164.31683594 83.22953125 165.17664063 82.48046875 166.0625 C73.63159689 176.28820682 63.65424127 184.13348208 50.68359375 188.45703125 C44.82879316 188.84735129 40.92262665 188.42252157 35.68359375 185.45703125 C32.09731456 182.06535636 29.76916435 178.82220266 29.5859375 173.7578125 C29.60333984 172.27861328 29.60333984 172.27861328 29.62109375 170.76953125 C29.63011719 169.77566406 29.63914062 168.78179688 29.6484375 167.7578125 C29.66583984 166.61892578 29.66583984 166.61892578 29.68359375 165.45703125 C29.02359375 165.45703125 28.36359375 165.45703125 27.68359375 165.45703125 C27.45929688 166.00488281 27.235 166.55273438 27.00390625 167.1171875 C22.69360124 174.75586413 14.4320701 181.50780782 6.68359375 185.45703125 C5.59046875 186.05515625 4.49734375 186.65328125 3.37109375 187.26953125 C-2.88530893 189.284305 -8.77561068 189.70433089 -14.75390625 186.76953125 C-21.41601917 180.75738057 -23.25926894 175.26650883 -24.31640625 166.45703125 C-24.86425781 166.99070312 -25.41210938 167.524375 -25.9765625 168.07421875 C-44.96780393 185.92289769 -68.22415861 197.58672369 -94.6953125 196.7734375 C-106.1857754 195.76941647 -116.68653134 191.22350864 -124.65234375 182.69140625 C-136.06543541 167.36678552 -136.9349989 148.91480589 -135.31640625 130.45703125 C-132.71407153 113.88263752 -127.59575276 97.49277714 -120.31640625 82.39453125 C-119.84219238 81.40864014 -119.36797852 80.42274902 -118.87939453 79.40698242 C-109.8964901 61.13704186 -98.35044936 44.21734143 -84.31640625 29.45703125 C-83.8044873 28.91256348 -83.29256836 28.3680957 -82.76513672 27.80712891 C-63.70965628 7.64940332 -28.10052881 -18.71789019 0 0 Z " fill="#77B63C" transform="translate(1134.31640625,408.54296875)"/>
<path d="M0 0 C1.77622368 0.82045989 3.52290114 1.70562275 5.25 2.625 C6.53631437 3.19029683 7.82708452 3.74551529 9.12109375 4.29296875 C23.21505362 10.38809199 35.52488606 18.74831579 47.25 28.625 C44.26668814 30.97103162 41.1875222 32.84065543 37.875 34.6875 C25.26660136 42.00159533 14.07328572 50.90165631 3.25 60.625 C2.16138672 61.58599609 2.16138672 61.58599609 1.05078125 62.56640625 C-14.84893494 77.46614029 -26.80645718 97.92852708 -35.75 117.625 C-36.05534668 118.29128418 -36.36069336 118.95756836 -36.67529297 119.64404297 C-47.57392858 143.94922232 -50.20384275 170.34032672 -51.75 196.625 C-69.9 196.625 -88.05 196.625 -106.75 196.625 C-106.75 171.8011658 -106.75 171.8011658 -104.75 159.625 C-104.59982422 158.69236328 -104.44964844 157.75972656 -104.29492188 156.79882812 C-103.79084775 153.69728968 -103.27390763 150.59824782 -102.75 147.5 C-102.5840332 146.51531738 -102.41806641 145.53063477 -102.24707031 144.51611328 C-101.40713317 139.72319099 -100.45238332 135.20100636 -98.75 130.625 C-98.32847656 129.36042969 -98.32847656 129.36042969 -97.8984375 128.0703125 C-97.18229167 125.921875 -96.46614583 123.7734375 -95.75 121.625 C-91.75 121.625 -91.75 121.625 -89.8203125 123.09375 C-85.41373842 127.69499202 -81.41274196 132.40836751 -77.75 137.625 C-79.64706875 132.709325 -83.77642212 129.33776962 -87.49414062 125.75390625 C-90.77170571 122.39250577 -92.69557857 119.67137623 -92.95581055 114.75927734 C-92.54787636 110.52895626 -90.88157867 106.89330928 -89.125 103.0625 C-88.7225708 102.15918945 -88.3201416 101.25587891 -87.90551758 100.32519531 C-72.62815958 66.89575393 -49.75512899 34.99437164 -20.77734375 12.05859375 C-18.61766833 10.32249338 -16.55914683 8.57243392 -14.50390625 6.72265625 C-5.23151029 -1.4033593 -5.23151029 -1.4033593 0 0 Z " fill="#86B933" transform="translate(507.75,377.375)"/>
<path d="M0 0 C16.1596647 0.20932208 31.65880522 3.64927366 46.75 9.25 C47.53616699 9.54003906 48.32233398 9.83007812 49.13232422 10.12890625 C66.97604395 16.85167772 82.16652377 26.39994609 96.6875 38.6953125 C99.44166126 41.19146713 99.44166126 41.19146713 101.75 42.25 C102.08 41.26 102.41 40.27 102.75 39.25 C103.100625 40.095625 103.45125 40.94125 103.8125 41.8125 C105.82485573 45.38280855 107.97382736 47.6406101 110.89453125 50.44921875 C112.74744986 52.24752502 114.51937732 54.08380939 116.25 56 C116.7553125 56.55171875 117.260625 57.1034375 117.78125 57.671875 C118.1009375 58.19265625 118.420625 58.7134375 118.75 59.25 C118.42 60.24 118.09 61.23 117.75 62.25 C116.62851562 60.91195312 116.62851562 60.91195312 115.484375 59.546875 C114.48968015 58.36450188 113.49488308 57.18221475 112.5 56 C112.00886719 55.41347656 111.51773438 54.82695312 111.01171875 54.22265625 C107.08996533 49.53841656 107.08996533 49.53841656 102.75 45.25 C102.09 45.25 101.43 45.25 100.75 45.25 C100.55664062 45.83007812 100.36328125 46.41015625 100.1640625 47.0078125 C97.75 54.25 97.75 54.25 96.77294922 57.05615234 C90.5190299 76.58211239 89.66843753 97.90241451 88.75 118.25 C86.24466104 115.74466104 85.24992159 113.21617803 83.75 110 C71.33770035 84.55907036 50.17920804 66.31414815 23.5625 57 C13.49138518 53.63804659 3.69331489 52.88621479 -6.875 52.625 C-8.16535156 52.58632813 -9.45570313 52.54765625 -10.78515625 52.5078125 C-13.9399687 52.41433658 -17.09478727 52.32857687 -20.25 52.25 C-19.35108726 40.8899581 -17.76247494 29.79241934 -13.25 19.25 C-12.85554688 18.280625 -12.46109375 17.31125 -12.0546875 16.3125 C-5.41961248 0.10225684 -5.41961248 0.10225684 0 0 Z " fill="#89BB32" transform="translate(312.25,453.75)"/>
<path d="M0 0 C4.30341371 2.18527959 8.11450274 5.14753315 12 8 C13.55460938 9.12148438 13.55460938 9.12148438 15.140625 10.265625 C21.41388238 14.93193961 27.27184181 19.92843781 33 25.25 C33.93453003 26.1174585 33.93453003 26.1174585 34.88793945 27.00244141 C38.5536142 30.46670545 41.93751234 33.98628512 45 38 C45 38.66 45 39.32 45 40 C44.28457031 40.16604736 43.56914063 40.33209473 42.83203125 40.50317383 C39.55337393 41.26743394 36.2767016 42.03989979 33 42.8125 C31.87464844 43.07353516 30.74929688 43.33457031 29.58984375 43.60351562 C21.73093808 45.46483539 14.5952716 47.82454099 7.23828125 51.11328125 C6.42939453 51.47357422 5.62050781 51.83386719 4.78710938 52.20507812 C3.12028173 52.95100652 1.45885047 53.70909827 -0.19726562 54.47851562 C-6.26108557 57.14387764 -6.26108557 57.14387764 -9.80859375 56.453125 C-12.14593773 54.90322846 -14.25661189 53.27715283 -16.375 51.4375 C-28.64811231 41.38923123 -43.09615643 34.26018008 -58 29 C-56.38050009 24.14150028 -52.05031471 22.53235697 -47.8125 19.9375 C-46.88155518 19.36402832 -45.95061035 18.79055664 -44.99145508 18.19970703 C-35.07396294 12.23014762 -24.68773692 7.41656636 -14 3 C-13.27377441 2.69094727 -12.54754883 2.38189453 -11.79931641 2.06347656 C-7.71723663 0.40588719 -4.39602351 -0.61508148 0 0 Z " fill="#0361B3" transform="translate(563,349)"/>
<path d="M0 0 C0.87462891 0.00451172 1.74925781 0.00902344 2.65039062 0.01367188 C4.78779047 0.02535166 6.92515463 0.04328311 9.0625 0.0625 C8.35673828 1.62097656 8.35673828 1.62097656 7.63671875 3.2109375 C4.59376163 10.00051519 1.62035051 16.66733286 -0.328125 23.8671875 C-0.92270244 26.00919084 -1.66167716 28.04294484 -2.4375 30.125 C-4.85474932 37.18490279 -5.74863712 44.71853142 -6.9375 52.0625 C-8.03964844 52.330625 -9.14179688 52.59875 -10.27734375 52.875 C-26.7905722 57.06662189 -40.72780338 63.2429262 -53.9375 74.0625 C-55.26572639 75.06927328 -56.59707657 76.07202395 -57.9375 77.0625 C-58.34838541 54.53228319 -57.12133914 32.61401743 -49.9375 11.0625 C-47.40883736 9.92414647 -44.9964935 8.99378727 -42.375 8.125 C-41.61719238 7.86630127 -40.85938477 7.60760254 -40.07861328 7.34106445 C-26.9173316 2.94806048 -13.93296645 -0.13774035 0 0 Z " fill="#45A70D" transform="translate(298.9375,453.9375)"/>
<path d="M0 0 C7.28507527 3.26863806 12.20763099 10.17031695 16.875 16.4375 C17.38748291 17.12489258 17.89996582 17.81228516 18.42797852 18.52050781 C28.0399579 31.68366687 34.79725259 45.89776258 39.8125 61.375 C40.03196289 62.04144531 40.25142578 62.70789063 40.47753906 63.39453125 C41.7901553 67.61017113 42 70.42166987 42 75 C24.18 75 6.36 75 -12 75 C-12 62.4950926 -11.98182727 51.15024414 -10 39 C-9.84982422 38.06591309 -9.69964844 37.13182617 -9.54492188 36.16943359 C-9.0410007 33.06933031 -8.52402695 29.97176596 -8 26.875 C-7.8340332 25.89039795 -7.66806641 24.9057959 -7.49707031 23.89135742 C-6.65709913 19.09782837 -5.69876628 14.57779989 -4 10 C-3.73058594 9.16855469 -3.46117187 8.33710938 -3.18359375 7.48046875 C-2.93738281 6.72378906 -2.69117188 5.96710938 -2.4375 5.1875 C-2.06431641 4.03314453 -2.06431641 4.03314453 -1.68359375 2.85546875 C-1 1 -1 1 0 0 Z " fill="#096B28" transform="translate(413,498)"/>
<path d="M0 0 C2.5 1.9375 2.5 1.9375 3.265625 5.11328125 C3.86730271 14.93065583 -0.57967834 23.65461668 -6.875 30.875 C-8.7221876 32.92446797 -10.60562948 34.93072834 -12.5 36.9375 C-13.69365594 38.3280727 -14.88212838 39.72313347 -16.0625 41.125 C-17.20047848 42.40287181 -18.34683876 43.6733123 -19.5 44.9375 C-20.22316406 45.73800781 -20.94632813 46.53851562 -21.69140625 47.36328125 C-28.09227593 54.13402462 -36.5643242 62.47099394 -46.27734375 63.234375 C-49.5 62.9375 -49.5 62.9375 -51.375 61.5625 C-54.34040515 57.279137 -53.88429539 52.99027275 -53.5 47.9375 C-50.36409469 31.19495469 -38.76751819 14.79112835 -24.8828125 5.11328125 C-16.56365403 0.01563667 -9.67831327 -2.93805938 0 0 Z " fill="#F8FAFC" transform="translate(929.5,522.0625)"/>
<path d="M0 0 C0.36356804 6.75575526 -0.36919545 11.1365356 -3.4375 17.125 C-3.79875977 17.85654297 -4.16001953 18.58808594 -4.53222656 19.34179688 C-13.32435098 36.83532732 -24.56914207 52.90914917 -37 68 C-38.25111695 69.58245089 -39.50107902 71.1658154 -40.75 72.75 C-44.15378728 77.00304906 -47.65109643 81.16973207 -51.1875 85.3125 C-51.68668945 85.8993457 -52.18587891 86.48619141 -52.70019531 87.09082031 C-55.66772114 90.54799777 -58.73664034 93.82016325 -62 97 C-52.22075895 65.80422105 -33.70061363 34.09297073 -13 9 C-12.32582031 8.12859375 -11.65164063 7.2571875 -10.95703125 6.359375 C-7.93238835 2.71289932 -4.84621469 0 0 0 Z " fill="#F2F7FA" transform="translate(1015,423)"/>
<path d="M0 0 C2 2 2 2 2.375 5.1875 C1.92593373 9.75300708 0.56154507 12.29602368 -2 16 C-2.556875 16.845625 -3.11375 17.69125 -3.6875 18.5625 C-11.19947726 26.48053009 -21.39668912 31.13460272 -32 33 C-28.07427087 20.17974447 -19.77552352 8.95087172 -9 1 C-5.75778445 -0.08073852 -3.39597063 -0.21676408 0 0 Z " fill="#F8FAF5" transform="translate(1351,521)"/>
<path d="M0 0 C3.64303292 2.50458513 4.78828641 3.97992542 5.6875 8.3125 C4.62033186 14.03640185 1.40282587 17.85586346 -2.88671875 21.68359375 C-5.37189484 23.23166093 -7.15832932 23.55405947 -10.0625 23.8125 C-10.91972656 23.90144531 -11.77695312 23.99039062 -12.66015625 24.08203125 C-15 24 -15 24 -18 22 C-19.2590187 18.2229439 -19.73655137 14.90511197 -19 11 C-14.96436667 3.38917472 -8.96216899 -1.89723336 0 0 Z " fill="#096AB9" transform="translate(749,463)"/>
<path d="M0 0 C1.32 0 2.64 0 4 0 C3.91253716 1.43861294 3.80434652 2.87597508 3.6875 4.3125 C3.62949219 5.11300781 3.57148437 5.91351563 3.51171875 6.73828125 C2.91793306 9.36272334 2.04219706 10.30820672 0 12 C-2.31332486 8.53001271 -2.33957563 7.07490752 -2 3 C-1.34 2.01 -0.68 1.02 0 0 Z " fill="#E3F2D7" transform="translate(1246,499)"/>
<path d="M0 0 C2.5 0.25 2.5 0.25 4.5 2.25 C4.875 4.625 4.875 4.625 4.5 7.25 C2.5 9.5625 2.5 9.5625 0.5 11.25 C0.5 10.26 0.5 9.27 0.5 8.25 C-0.16 8.25 -0.82 8.25 -1.5 8.25 C-2.5 4.375 -2.5 4.375 -2.5 3.25 C-3.16 2.92 -3.82 2.59 -4.5 2.25 C-2.5 0.25 -2.5 0.25 0 0 Z " fill="#1670B9" transform="translate(980.5,567.75)"/>
<path d="M0 0 C0.33 0.99 0.66 1.98 1 3 C-0.01320313 3.99580078 -0.01320313 3.99580078 -1.046875 5.01171875 C-1.93890625 5.89472656 -2.8309375 6.77773438 -3.75 7.6875 C-4.63171875 8.55761719 -5.5134375 9.42773438 -6.421875 10.32421875 C-8.78896102 12.78096712 -10.89062167 15.32324008 -13 18 C-15.0625 19.875 -15.0625 19.875 -17 21 C-17.99 20.67 -18.98 20.34 -20 20 C-19.52691406 19.59910156 -19.05382812 19.19820312 -18.56640625 18.78515625 C-11.90637992 13.05987046 -5.13288915 7.17309115 0 0 Z " fill="#2578C3" transform="translate(918,557)"/>
<path d="M0 0 C0.12375 0.639375 0.2475 1.27875 0.375 1.9375 C0.58125 2.618125 0.7875 3.29875 1 4 C1.66 4.33 2.32 4.66 3 5 C1.54601271 6.81598825 0.08667675 8.62769519 -1.375 10.4375 C-2.59316406 11.95150391 -2.59316406 11.95150391 -3.8359375 13.49609375 C-6 16 -6 16 -8 17 C-6.51095825 13.10391502 -4.75621287 9.40902982 -2.875 5.6875 C-2.06675781 4.08455078 -2.06675781 4.08455078 -1.2421875 2.44921875 C-0.62730469 1.23685547 -0.62730469 1.23685547 0 0 Z " fill="#D5E6F4" transform="translate(774,539)"/>
<path d="M0 0 C0.99 0 1.98 0 3 0 C4.13480527 3.60993172 4.10015767 6.9842327 4.0625 10.75 C4.05347656 11.92046875 4.04445313 13.0909375 4.03515625 14.296875 C4.02355469 15.18890625 4.01195312 16.0809375 4 17 C3.67 17 3.34 17 3 17 C2.49453964 14.91798472 1.99583165 12.83432933 1.5 10.75 C1.2215625 9.58984375 0.943125 8.4296875 0.65625 7.234375 C0 4 0 4 0 0 Z " fill="#81C041" transform="translate(452,556)"/>
<path d="M0 0 C0.33 0 0.66 0 1 0 C1 5.94 1 11.88 1 18 C-1.09782787 15.90217213 -1.6509396 14.6200793 -2.625 11.875 C-2.88539063 11.15054688 -3.14578125 10.42609375 -3.4140625 9.6796875 C-3.70410156 8.84824219 -3.70410156 8.84824219 -4 8 C-3.01 8 -2.02 8 -1 8 C-0.67 5.36 -0.34 2.72 0 0 Z " fill="#9ACD3A" transform="translate(400,554)"/>
<path d="M0 0 C0.99 0.33 1.98 0.66 3 1 C-3.93 7.435 -3.93 7.435 -11 14 C-11.66 13.67 -12.32 13.34 -13 13 C-8.71 8.71 -4.42 4.42 0 0 Z " fill="#6EB52F" transform="translate(1061,427)"/>
<path d="M0 0 C0.33 0.99 0.66 1.98 1 3 C-0.97845068 6.39162974 -3.0755255 9.36797295 -6 12 C-6.66 11.67 -7.32 11.34 -8 11 C-5.36 7.37 -2.72 3.74 0 0 Z " fill="#1F72C0" transform="translate(992,471)"/>
<path d="M0 0 C1.32 0 2.64 0 4 0 C3.67 1.32 3.34 2.64 3 4 C0.69 4.66 -1.62 5.32 -4 6 C-2.84826645 3.53199953 -1.95216435 1.95216435 0 0 Z " fill="#0562AE" transform="translate(997,419)"/>
<path d="M0 0 C0.33 0.99 0.66 1.98 1 3 C-1.31 5.31 -3.62 7.62 -6 10 C-6.33 9.01 -6.66 8.02 -7 7 C-4.69 4.69 -2.38 2.38 0 0 Z " fill="#8ABF3A" transform="translate(470,405)"/>
<path d="M0 0 C0.66 0.99 1.32 1.98 2 3 C0.35 5.97 -1.3 8.94 -3 12 C-3.66 12 -4.32 12 -5 12 C-3.68938409 7.76570244 -2.05643741 3.92592596 0 0 Z " fill="#7CB747" transform="translate(1256,550)"/>
<path d="M0 0 C0.33 0.99 0.66 1.98 1 3 C-0.21484375 4.82421875 -0.21484375 4.82421875 -1.9375 6.6875 C-2.50339844 7.31011719 -3.06929687 7.93273437 -3.65234375 8.57421875 C-4.09707031 9.04472656 -4.54179688 9.51523437 -5 10 C-5.66 9.34 -6.32 8.68 -7 8 C-4.69 5.36 -2.38 2.72 0 0 Z " fill="#1C71BB" transform="translate(753,548)"/>
<path d="M0 0 C0.33 0.99 0.66 1.98 1 3 C-1.31 4.98 -3.62 6.96 -6 9 C-6 6 -6 6 -4.6875 4.39453125 C-4.130625 3.87246094 -3.57375 3.35039063 -3 2.8125 C-2.443125 2.28269531 -1.88625 1.75289062 -1.3125 1.20703125 C-0.6628125 0.60955078 -0.6628125 0.60955078 0 0 Z " fill="#2879C1" transform="translate(886,525)"/>
<path d="M0 0 C0.33 0.99 0.66 1.98 1 3 C3.01508358 3.73323796 3.01508358 3.73323796 5 4 C5 4.66 5 5.32 5 6 C2.23723823 5.47731534 -0.3260876 4.89130413 -3 4 C-2.67 3.01 -2.34 2.02 -2 1 C-1.34 0.67 -0.68 0.34 0 0 Z " fill="#1C62A9" transform="translate(508,374)"/>
<path d="M0 0 C-1.48781815 3.78717347 -3.61988409 5.77407001 -7 8 C-7.99 7.67 -8.98 7.34 -10 7 C-8.71372289 5.82739389 -7.42080217 4.6620717 -6.125 3.5 C-5.04605469 2.52546875 -5.04605469 2.52546875 -3.9453125 1.53125 C-2 0 -2 0 0 0 Z " fill="#1C70BC" transform="translate(908,570)"/>
<path d="M0 0 C0.99 0.33 1.98 0.66 3 1 C3.33 1.99 3.66 2.98 4 4 C3.34 4.66 2.68 5.32 2 6 C1.01 6 0.02 6 -1 6 C-1.042721 4.33388095 -1.04063832 2.66617115 -1 1 C-0.67 0.67 -0.34 0.34 0 0 Z " fill="#055EAA" transform="translate(946,499)"/>
<path d="M0 0 C0.99 0.33 1.98 0.66 3 1 C2.0479279 2.00596297 1.08812654 3.00461563 0.125 4 C-0.40867187 4.556875 -0.94234375 5.11375 -1.4921875 5.6875 C-3 7 -3 7 -5 7 C-3.70700306 4.11562221 -2.34058637 2.12780579 0 0 Z " fill="#0560AC" transform="translate(789,531)"/>
<path d="M0 0 C0.95465783 2.16967689 1.14401212 3.56328793 0.3984375 5.82421875 C-0.35870385 7.5684743 -1.17609198 9.28627131 -2 11 C-2.33 11 -2.66 11 -3 11 C-3.32613618 6.32538149 -2.70582788 3.83325617 0 0 Z " fill="#1F6FBD" transform="translate(733,469)"/>
<path d="M0 0 C0.99 0.33 1.98 0.66 3 1 C3 3.31 3 5.62 3 8 C2.67 8 2.34 8 2 8 C2 6.02 2 4.04 2 2 C1.34 2 0.68 2 0 2 C-0.33 2.99 -0.66 3.98 -1 5 C-1.66 5 -2.32 5 -3 5 C-1.125 1.125 -1.125 1.125 0 0 Z " fill="#6BA92C" transform="translate(1162,572)"/>
<path d="M0 0 C0.33 0 0.66 0 1 0 C1.125 2.875 1.125 2.875 1 6 C0.34 6.66 -0.32 7.32 -1 8 C-1.99 7.67 -2.98 7.34 -4 7 C-2.68 4.69 -1.36 2.38 0 0 Z " fill="#2071B9" transform="translate(868,548)"/>
<path d="M0 0 C0.66 0 1.32 0 2 0 C1.38722388 2.96175123 0.74627478 4.38058783 -1 7 C-1.66 6.67 -2.32 6.34 -3 6 C-2.01 4.02 -1.02 2.04 0 0 Z " fill="#1F71BA" transform="translate(767,520)"/>
</svg>
